<svg width="24" height="24" viewBox="0 0 24 25" fill="none" xmlns="http://www.w3.org/2000/svg" transform="rotate(360 0 0)">
<path fill-rule="evenodd" clip-rule="evenodd" d="M13.0423 2.53562C13.3531 2.6349 13.5641 2.92376 13.5641 3.25005V9.71487L19.2148 9.71487C19.4955 9.71487 19.7527 9.8716 19.8814 10.1211C20.01 10.3705 19.9886 10.6709 19.8259 10.8997L11.797 22.1848C11.6079 22.4507 11.2685 22.5638 10.9577 22.4645C10.6469 22.3652 10.4359 22.0763 10.4359 21.7501L10.4359 15.2852H4.78516C4.50447 15.2852 4.24728 15.1285 4.11861 14.879C3.98993 14.6296 4.01132 14.3292 4.17404 14.1005L12.2029 2.81527C12.3921 2.5494 12.7314 2.43633 13.0423 2.53562ZM6.23919 13.7852H11.1859C11.3848 13.7852 11.5756 13.8643 11.7162 14.0049C11.8569 14.1456 11.9359 14.3363 11.9359 14.5352L11.9359 19.4021L17.7608 11.2149L12.8141 11.2149C12.3998 11.2149 12.0641 10.8791 12.0641 10.4649V5.59798L6.23919 13.7852Z" fill="#343C54"/>
</svg>
