<svg width="24" height="24" viewBox="0 0 24 24" fill="none" xmlns="http://www.w3.org/2000/svg" transform="rotate(360 0 0)">
<path d="M12.0004 7.81075C12.4146 7.81075 12.7504 8.14653 12.7504 8.56075V12.7803C12.7504 13.1945 12.4146 13.5303 12.0004 13.5303C11.5861 13.5303 11.2504 13.1945 11.2504 12.7803V8.56075C11.2504 8.14653 11.5861 7.81075 12.0004 7.81075Z" fill="#343C54"/>
<path d="M11.0994 15.3303C11.0994 14.8332 11.5023 14.4303 11.9994 14.4303C12.4965 14.4303 12.9001 14.8332 12.9001 15.3303C12.9001 15.8274 12.4972 16.2303 12.0001 16.2303C11.5031 16.2303 11.0994 15.8274 11.0994 15.3303Z" fill="#343C54"/>
<path fill-rule="evenodd" clip-rule="evenodd" d="M13.4475 2.59976C12.6478 1.80008 11.3513 1.80008 10.5516 2.59976L2.59976 10.5516C1.80008 11.3513 1.80008 12.6478 2.59976 13.4475L10.5525 21.4002C11.3522 22.1999 12.6487 22.1999 13.4484 21.4002L21.4002 13.4484C22.1999 12.6487 22.1999 11.3522 21.4002 10.5525L13.4475 2.59976ZM11.6123 3.66042C11.8262 3.44653 12.1729 3.44653 12.3868 3.66042L20.3396 11.6131C20.5535 11.827 20.5535 12.1738 20.3396 12.3877L12.3877 20.3396C12.1738 20.5535 11.8271 20.5535 11.6132 20.3396L3.66042 12.3868C3.44653 12.1729 3.44653 11.8262 3.66042 11.6123L11.6123 3.66042Z" fill="#343C54"/>
</svg>
