<svg width="24" height="24" viewBox="0 0 24 24" fill="none" xmlns="http://www.w3.org/2000/svg" transform="rotate(360 0 0)">
<path fill-rule="evenodd" clip-rule="evenodd" d="M9.55795 7.65659L8.34852 12.1702L9.11065 12.3744C9.30278 12.4259 9.4666 12.5516 9.56605 12.7239C9.66551 12.8961 9.69246 13.1009 9.64098 13.293L7.78075 20.2355C7.45913 21.4358 6.22537 22.1481 5.02507 21.8265L4.94751 21.8057C3.74721 21.484 3.0349 20.2503 3.35652 19.05L5.21675 12.1075C5.32396 11.7074 5.73521 11.47 6.13531 11.5772L6.89963 11.782L8.70318 5.05105C8.88333 3.38925 10.2909 2.0957 12.0006 2.0957C13.7104 2.0957 15.1181 3.38939 15.2981 5.05131L17.1016 11.782L17.8659 11.5772C18.266 11.47 18.6772 11.7074 18.7844 12.1075L20.6447 19.05C20.9663 20.2503 20.254 21.484 19.0537 21.8057L18.9761 21.8265C17.7758 22.1481 16.5421 21.4358 16.2204 20.2355L14.3602 13.293C14.3087 13.1009 14.3357 12.8961 14.4351 12.7239C14.5346 12.5516 14.6984 12.4259 14.8905 12.3744L15.6527 12.1702L14.4433 7.65662C13.837 8.31618 12.9671 8.72953 12.0006 8.72953C11.0341 8.72953 10.1642 8.31617 9.55795 7.65659ZM10.1837 5.41262C10.1837 4.40916 10.9972 3.5957 12.0006 3.5957C13.0041 3.5957 13.8175 4.40916 13.8175 5.41262C13.8175 6.41607 13.0041 7.22953 12.0006 7.22953C10.9972 7.22953 10.1837 6.41607 10.1837 5.41262ZM7.20581 13.417C7.21566 13.42 7.22562 13.4229 7.23568 13.4256C7.24574 13.4283 7.25581 13.4308 7.26588 13.4331L7.99797 13.6292L6.33186 19.8472C6.22466 20.2473 5.8134 20.4848 5.4133 20.3776L5.33574 20.3568C4.93564 20.2496 4.6982 19.8383 4.80541 19.4382L6.47152 13.2202L7.20581 13.417ZM16.0032 13.6292L16.7353 13.4331C16.7454 13.4308 16.7555 13.4283 16.7655 13.4256C16.7756 13.4229 16.7855 13.42 16.7954 13.417L17.5297 13.2202L19.1958 19.4382C19.303 19.8383 19.0656 20.2496 18.6655 20.3568L18.5879 20.3776C18.1878 20.4848 17.7765 20.2473 17.6693 19.8472L16.0032 13.6292Z" fill="#343C54"/>
</svg>
