<svg width="24" height="24" viewBox="0 0 24 24" fill="none" xmlns="http://www.w3.org/2000/svg" transform="rotate(360 0 0)">
<path fill-rule="evenodd" clip-rule="evenodd" d="M21.933 3.69241C22.1029 4.07014 21.9345 4.51415 21.5568 4.68413L19.777 5.48504L18.8181 13.7022L18.9458 13.6918C20.6395 13.5545 22.0898 14.892 22.0898 16.5913C22.0898 18.1978 20.7875 19.5002 19.1809 19.5002H4.40055C3.12438 19.5002 2.08984 18.4656 2.08984 17.1895C2.08984 15.9857 3.01399 14.9836 4.21381 14.8863L17.2935 13.8258L18.1831 6.20229L16.5568 6.93413C16.1791 7.1041 15.7351 6.93569 15.5651 6.55796C15.3951 6.18023 15.5635 5.73622 15.9412 5.56624L20.9412 3.31624C21.319 3.14627 21.763 3.31468 21.933 3.69241ZM20.5898 16.5913C20.5898 15.7682 19.8874 15.1204 19.067 15.1869L4.33504 16.3814C3.91408 16.4155 3.58984 16.7671 3.58984 17.1895C3.58984 17.6372 3.95281 18.0002 4.40055 18.0002H19.1809C19.959 18.0002 20.5898 17.3694 20.5898 16.5913Z" fill="#343C54"/>
</svg>
