<svg xmlns="http://www.w3.org/2000/svg" xmlns:xlink="http://www.w3.org/1999/xlink" width="80" zoomAndPan="magnify" viewBox="0 0 60 60" height="80" preserveAspectRatio="xMidYMid meet" version="1.0"><defs><g/><clipPath id="586eb11d6a"><path d="M 45 11 L 59 11 L 59 25 L 45 25 Z M 45 11 " clip-rule="nonzero"/></clipPath><clipPath id="2ada932642"><rect x="0" width="59" y="0" height="28"/></clipPath></defs><g transform="matrix(1, 0, 0, 1, 1, 16)"><g clip-path="url(#2ada932642)"><g fill="#ff6b35" fill-opacity="1"><g transform="translate(2.151703, 24.517579)"><g><path d="M 10.765625 -19.671875 C 11.585938 -19.671875 12.34375 -19.519531 13.03125 -19.21875 C 13.71875 -18.914062 14.269531 -18.46875 14.6875 -17.875 C 15.101562 -17.28125 15.3125 -16.546875 15.3125 -15.671875 C 15.3125 -15.160156 15.207031 -14.613281 15 -14.03125 L 13.203125 -9 C 12.867188 -8.039062 12.398438 -7.25 11.796875 -6.625 C 11.191406 -6 10.519531 -5.53125 9.78125 -5.21875 C 9.039062 -4.90625 8.300781 -4.75 7.5625 -4.75 C 6.925781 -4.75 6.328125 -4.859375 5.765625 -5.078125 C 5.210938 -5.304688 4.738281 -5.609375 4.34375 -5.984375 L 2.828125 -1.515625 C 2.648438 -0.984375 2.382812 -0.597656 2.03125 -0.359375 C 1.675781 -0.117188 1.304688 0 0.921875 0 C 0.472656 0 0.0703125 -0.140625 -0.28125 -0.421875 C -0.632812 -0.710938 -0.8125 -1.109375 -0.8125 -1.609375 C -0.8125 -1.734375 -0.796875 -1.851562 -0.765625 -1.96875 C -0.734375 -2.09375 -0.695312 -2.222656 -0.65625 -2.359375 L 5.078125 -18.78125 C 5.285156 -19.351562 5.578125 -19.757812 5.953125 -20 C 6.335938 -20.25 6.734375 -20.375 7.140625 -20.375 C 7.546875 -20.375 7.910156 -20.257812 8.234375 -20.03125 C 8.554688 -19.800781 8.726562 -19.5 8.75 -19.125 C 9.03125 -19.332031 9.351562 -19.472656 9.71875 -19.546875 C 10.09375 -19.628906 10.441406 -19.671875 10.765625 -19.671875 Z M 11.234375 -13.90625 C 11.304688 -14.125 11.351562 -14.320312 11.375 -14.5 C 11.40625 -14.675781 11.421875 -14.84375 11.421875 -15 C 11.421875 -15.539062 11.269531 -15.953125 10.96875 -16.234375 C 10.664062 -16.523438 10.285156 -16.671875 9.828125 -16.671875 C 9.378906 -16.671875 8.941406 -16.546875 8.515625 -16.296875 C 8.097656 -16.046875 7.78125 -15.613281 7.5625 -15 L 6 -10.40625 C 5.9375 -10.238281 5.90625 -10.070312 5.90625 -9.90625 C 5.90625 -9.382812 6.082031 -8.957031 6.4375 -8.625 C 6.800781 -8.300781 7.226562 -8.140625 7.71875 -8.140625 C 8.15625 -8.140625 8.570312 -8.285156 8.96875 -8.578125 C 9.363281 -8.867188 9.660156 -9.296875 9.859375 -9.859375 Z M 11.234375 -13.90625 "/></g></g></g><g fill="#ff6b35" fill-opacity="1"><g transform="translate(15.269763, 24.517579)"><g><path d="M 12.984375 -6.5625 C 13.097656 -6.925781 13.289062 -7.191406 13.5625 -7.359375 C 13.84375 -7.523438 14.125 -7.609375 14.40625 -7.609375 C 14.757812 -7.609375 15.078125 -7.503906 15.359375 -7.296875 C 15.648438 -7.097656 15.796875 -6.816406 15.796875 -6.453125 C 15.796875 -6.316406 15.769531 -6.179688 15.71875 -6.046875 C 15.195312 -4.472656 14.585938 -3.25 13.890625 -2.375 C 13.191406 -1.5 12.460938 -0.882812 11.703125 -0.53125 C 10.953125 -0.175781 10.21875 0 9.5 0 C 8.8125 0 8.179688 -0.140625 7.609375 -0.421875 C 7.035156 -0.703125 6.582031 -1.082031 6.25 -1.5625 C 5.832031 -1.113281 5.363281 -0.738281 4.84375 -0.4375 C 4.320312 -0.144531 3.71875 0 3.03125 0 C 2.394531 0 1.820312 -0.125 1.3125 -0.375 C 0.800781 -0.632812 0.394531 -1 0.09375 -1.46875 C -0.207031 -1.9375 -0.359375 -2.472656 -0.359375 -3.078125 C -0.359375 -3.472656 -0.289062 -3.875 -0.15625 -4.28125 L 2.484375 -12 C 2.648438 -12.457031 2.882812 -12.785156 3.1875 -12.984375 C 3.488281 -13.191406 3.800781 -13.296875 4.125 -13.296875 C 4.539062 -13.296875 4.921875 -13.148438 5.265625 -12.859375 C 5.609375 -12.578125 5.78125 -12.203125 5.78125 -11.734375 C 5.78125 -11.523438 5.734375 -11.289062 5.640625 -11.03125 L 3.171875 -3.96875 C 3.097656 -3.707031 3.0625 -3.472656 3.0625 -3.265625 C 3.0625 -2.890625 3.234375 -2.703125 3.578125 -2.703125 C 4.035156 -2.703125 4.488281 -2.929688 4.9375 -3.390625 C 5.394531 -3.847656 5.78125 -4.382812 6.09375 -5 L 8.59375 -11.96875 C 8.75 -12.445312 8.984375 -12.785156 9.296875 -12.984375 C 9.609375 -13.191406 9.929688 -13.296875 10.265625 -13.296875 C 10.671875 -13.296875 11.039062 -13.15625 11.375 -12.875 C 11.707031 -12.59375 11.875 -12.226562 11.875 -11.78125 C 11.875 -11.675781 11.863281 -11.570312 11.84375 -11.46875 C 11.832031 -11.375 11.804688 -11.265625 11.765625 -11.140625 L 9.0625 -3.578125 C 9.019531 -3.472656 9 -3.359375 9 -3.234375 C 9 -3.085938 9.0625 -2.960938 9.1875 -2.859375 C 9.3125 -2.753906 9.472656 -2.703125 9.671875 -2.703125 C 10.203125 -2.703125 10.757812 -3.003906 11.34375 -3.609375 C 11.925781 -4.222656 12.472656 -5.207031 12.984375 -6.5625 Z M 12.984375 -6.5625 "/></g></g></g><g fill="#ff6b35" fill-opacity="1"><g transform="translate(27.481565, 24.517579)"><g><path d="M 3.109375 -3.6875 C 3.085938 -3.632812 3.066406 -3.566406 3.046875 -3.484375 C 3.023438 -3.410156 3.015625 -3.351562 3.015625 -3.3125 C 3.015625 -3.144531 3.070312 -3 3.1875 -2.875 C 3.3125 -2.757812 3.488281 -2.703125 3.71875 -2.703125 C 4.25 -2.703125 4.816406 -3.003906 5.421875 -3.609375 C 6.035156 -4.222656 6.597656 -5.207031 7.109375 -6.5625 C 7.273438 -6.988281 7.492188 -7.289062 7.765625 -7.46875 C 8.035156 -7.65625 8.316406 -7.75 8.609375 -7.75 C 8.953125 -7.75 9.257812 -7.628906 9.53125 -7.390625 C 9.8125 -7.160156 9.953125 -6.863281 9.953125 -6.5 C 9.953125 -6.363281 9.925781 -6.210938 9.875 -6.046875 C 9.34375 -4.472656 8.710938 -3.25 7.984375 -2.375 C 7.253906 -1.5 6.492188 -0.882812 5.703125 -0.53125 C 4.921875 -0.175781 4.164062 0 3.4375 0 C 2.78125 0 2.164062 -0.125 1.59375 -0.375 C 1.03125 -0.625 0.578125 -0.988281 0.234375 -1.46875 C -0.0976562 -1.957031 -0.265625 -2.546875 -0.265625 -3.234375 C -0.265625 -3.703125 -0.175781 -4.195312 0 -4.71875 L 4.71875 -18.171875 C 5.0625 -19.171875 5.65625 -19.671875 6.5 -19.671875 C 6.84375 -19.671875 7.175781 -19.539062 7.5 -19.28125 C 7.832031 -19.019531 8 -18.671875 8 -18.234375 C 8 -17.992188 7.953125 -17.738281 7.859375 -17.46875 Z M 3.109375 -3.6875 "/></g></g></g><g fill="#ff6b35" fill-opacity="1"><g transform="translate(33.802705, 24.517579)"><g><path d="M 12.03125 -6.40625 C 12.15625 -6.738281 12.335938 -6.976562 12.578125 -7.125 C 12.828125 -7.269531 13.085938 -7.34375 13.359375 -7.34375 C 13.722656 -7.34375 14.0625 -7.234375 14.375 -7.015625 C 14.6875 -6.804688 14.84375 -6.535156 14.84375 -6.203125 C 14.84375 -6.160156 14.84375 -6.113281 14.84375 -6.0625 C 14.84375 -6.007812 14.828125 -5.957031 14.796875 -5.90625 C 14.265625 -4.382812 13.535156 -3.179688 12.609375 -2.296875 C 11.691406 -1.410156 10.644531 -0.78125 9.46875 -0.40625 C 8.289062 -0.03125 7.046875 0.15625 5.734375 0.15625 C 4.398438 0.15625 3.269531 -0.015625 2.34375 -0.359375 C 1.414062 -0.710938 0.707031 -1.1875 0.21875 -1.78125 C -0.257812 -2.375 -0.5 -3.039062 -0.5 -3.78125 C -0.5 -4.269531 -0.414062 -4.757812 -0.25 -5.25 C -0.0820312 -5.75 0.164062 -6.191406 0.5 -6.578125 C 0.84375 -6.960938 1.265625 -7.21875 1.765625 -7.34375 C 2.222656 -8.1875 2.679688 -9.039062 3.140625 -9.90625 C 3.609375 -10.78125 4.066406 -11.644531 4.515625 -12.5 C 4.722656 -12.9375 5.023438 -13.265625 5.421875 -13.484375 C 5.828125 -13.703125 6.238281 -13.8125 6.65625 -13.8125 C 7.226562 -13.8125 7.6875 -13.617188 8.03125 -13.234375 C 8.375 -12.859375 8.546875 -12.425781 8.546875 -11.9375 C 8.546875 -11.601562 8.4375 -11.273438 8.21875 -10.953125 C 8 -10.628906 7.726562 -10.398438 7.40625 -10.265625 C 7.445312 -9.910156 7.566406 -9.546875 7.765625 -9.171875 C 7.960938 -8.796875 8.175781 -8.410156 8.40625 -8.015625 C 8.71875 -7.492188 9.015625 -6.925781 9.296875 -6.3125 C 9.585938 -5.695312 9.734375 -5.054688 9.734375 -4.390625 C 9.734375 -4.242188 9.726562 -4.101562 9.71875 -3.96875 C 9.707031 -3.832031 9.6875 -3.6875 9.65625 -3.53125 C 10.175781 -3.832031 10.632812 -4.222656 11.03125 -4.703125 C 11.425781 -5.179688 11.757812 -5.75 12.03125 -6.40625 Z M 4.84375 -7.015625 C 5.039062 -6.828125 5.1875 -6.609375 5.28125 -6.359375 C 5.375 -6.109375 5.421875 -5.851562 5.421875 -5.59375 C 5.421875 -5.03125 5.238281 -4.519531 4.875 -4.0625 C 4.507812 -3.601562 3.992188 -3.375 3.328125 -3.375 C 3.253906 -3.375 3.171875 -3.375 3.078125 -3.375 C 2.984375 -3.382812 2.894531 -3.398438 2.8125 -3.421875 C 2.925781 -3.128906 3.140625 -2.898438 3.453125 -2.734375 C 3.773438 -2.566406 4.128906 -2.484375 4.515625 -2.484375 C 5.117188 -2.515625 5.5625 -2.722656 5.84375 -3.109375 C 6.132812 -3.492188 6.28125 -3.953125 6.28125 -4.484375 C 6.28125 -5.015625 6.160156 -5.539062 5.921875 -6.0625 C 5.691406 -6.582031 5.398438 -7.046875 5.046875 -7.453125 Z M 4.84375 -7.015625 "/></g></g></g><g clip-path="url(#586eb11d6a)"><g fill="#ff6b35" fill-opacity="1"><g transform="translate(45.108252, 24.517579)"><g><path d="M 11.46875 -6.390625 C 11.570312 -6.734375 11.769531 -6.992188 12.0625 -7.171875 C 12.351562 -7.347656 12.660156 -7.4375 12.984375 -7.4375 C 13.328125 -7.4375 13.628906 -7.335938 13.890625 -7.140625 C 14.160156 -6.953125 14.296875 -6.6875 14.296875 -6.34375 C 14.296875 -6.1875 14.265625 -6.03125 14.203125 -5.875 C 13.703125 -4.4375 13.003906 -3.285156 12.109375 -2.421875 C 11.222656 -1.554688 10.242188 -0.9375 9.171875 -0.5625 C 8.097656 -0.1875 7.035156 0 5.984375 0 C 4.878906 0 3.882812 -0.175781 3 -0.53125 C 2.113281 -0.882812 1.414062 -1.390625 0.90625 -2.046875 C 0.394531 -2.703125 0.140625 -3.476562 0.140625 -4.375 C 0.140625 -4.625 0.164062 -4.882812 0.21875 -5.15625 C 0.269531 -5.4375 0.34375 -5.710938 0.4375 -5.984375 L 1.765625 -9.859375 C 2.160156 -10.984375 2.800781 -11.835938 3.6875 -12.421875 C 4.582031 -13.003906 5.535156 -13.296875 6.546875 -13.296875 C 7.410156 -13.296875 8.15625 -13.128906 8.78125 -12.796875 C 9.414062 -12.460938 9.910156 -12.007812 10.265625 -11.4375 C 10.628906 -10.863281 10.8125 -10.21875 10.8125 -9.5 C 10.8125 -9.113281 10.75 -8.695312 10.625 -8.25 C 10.320312 -7.238281 9.753906 -6.429688 8.921875 -5.828125 C 8.097656 -5.222656 7.171875 -4.921875 6.140625 -4.921875 C 5.679688 -4.921875 5.253906 -4.984375 4.859375 -5.109375 C 4.460938 -5.234375 4.097656 -5.394531 3.765625 -5.59375 L 3.578125 -5.171875 C 3.535156 -5.054688 3.503906 -4.945312 3.484375 -4.84375 C 3.472656 -4.738281 3.46875 -4.632812 3.46875 -4.53125 C 3.46875 -4.019531 3.707031 -3.585938 4.1875 -3.234375 C 4.675781 -2.878906 5.332031 -2.703125 6.15625 -2.703125 C 6.8125 -2.703125 7.484375 -2.820312 8.171875 -3.0625 C 8.859375 -3.3125 9.492188 -3.707031 10.078125 -4.25 C 10.671875 -4.800781 11.132812 -5.515625 11.46875 -6.390625 Z M 6.484375 -10.625 C 6.222656 -10.625 5.960938 -10.523438 5.703125 -10.328125 C 5.453125 -10.128906 5.265625 -9.859375 5.140625 -9.515625 L 4.671875 -8.15625 C 4.984375 -7.976562 5.375 -7.890625 5.84375 -7.890625 C 6.1875 -7.890625 6.507812 -7.960938 6.8125 -8.109375 C 7.113281 -8.265625 7.320312 -8.53125 7.4375 -8.90625 C 7.488281 -9.070312 7.515625 -9.253906 7.515625 -9.453125 C 7.515625 -9.785156 7.421875 -10.0625 7.234375 -10.28125 C 7.046875 -10.507812 6.796875 -10.625 6.484375 -10.625 Z M 6.484375 -10.625 "/></g></g></g></g></g></g></svg>